{
  "accessors": [
    {
      "bufferView": 2,
      "componentType": 5126,
      "count": 818,
      "max": [
        0.027431288734078407,
        0.015029228292405605,
        0.027384918183088303
      ],
      "min": [
        -0.23611922562122345,
        -0.015029221773147583,
        -0.027384920045733452
      ],
      "type": "VEC3"
    },
    {
      "bufferView": 2,
      "byteOffset": 9816,
      "componentType": 5126,
      "count": 818,
      "max": [
        1.0,
        1.0,
        1.0
      ],
      "min": [
        -1.0,
        -1.0,
        -1.0
      ],
      "type": "VEC3"
    },
    {
      "bufferView": 3,
      "componentType": 5126,
      "count": 818,
      "max": [
        1.0,
        0.9999961853027344,
        1.0,
        -1.0
      ],
      "min": [
        -1.0,
        -0.9999217987060547,
        -0.999994695186615,
        -1.0
      ],
      "type": "VEC4"
    },
    {
      "bufferView": 1,
      "componentType": 5126,
      "count": 818,
      "max": [
        0.9982663989067078,
        0.9985046982765198
      ],
      "min": [
        0.500396192073822,
        0.12649434804916382
      ],
      "type": "VEC2"
    },
    {
      "bufferView": 1,
      "byteOffset": 6544,
      "componentType": 5126,
      "count": 818,
      "max": [
        0.9982663989067078,
        0.9985046982765198
      ],
      "min": [
        0.500396192073822,
        0.12649434804916382
      ],
      "type": "VEC2"
    },
    {
      "bufferView": 1,
      "byteOffset": 13088,
      "componentType": 5126,
      "count": 818,
      "max": [
        0.9982663989067078,
        0.9985046982765198
      ],
      "min": [
        0.500396192073822,
        0.12649434804916382
      ],
      "type": "VEC2"
    },
    {
      "bufferView": 1,
      "byteOffset": 19632,
      "componentType": 5126,
      "count": 818,
      "max": [
        0.9982663989067078,
        0.9985046982765198
      ],
      "min": [
        0.500396192073822,
        0.12649434804916382
      ],
      "type": "VEC2"
    },
    {
      "bufferView": 0,
      "componentType": 5125,
      "count": 3216,
      "type": "SCALAR"
    },
    {
      "bufferView": 2,
      "byteOffset": 19632,
      "componentType": 5126,
      "count": 2046,
      "max": [
        0.05494256317615509,
        0.12239129096269608,
        0.02205459401011467
      ],
      "min": [
        -0.05494250729680061,
        -0.27357399463653564,
        -0.022054597735404968
      ],
      "type": "VEC3"
    },
    {
      "bufferView": 2,
      "byteOffset": 44184,
      "componentType": 5126,
      "count": 2046,
      "max": [
        1.0,
        1.0,
        1.0
      ],
      "min": [
        -1.0,
        -1.0,
        -1.0
      ],
      "type": "VEC3"
    },
    {
      "bufferView": 3,
      "byteOffset": 13088,
      "componentType": 5126,
      "count": 2046,
      "max": [
        1.0,
        1.0,
        1.0,
        -1.0
      ],
      "min": [
        -1.0,
        -1.0,
        -1.0,
        -1.0
      ],
      "type": "VEC4"
    },
    {
      "bufferView": 1,
      "byteOffset": 26176,
      "componentType": 5126,
      "count": 2046,
      "max": [
        0.9932473301887512,
        0.9985111355781555
      ],
      "min": [
        0.00149305141530931,
        0.0015358924865722656
      ],
      "type": "VEC2"
    },
    {
      "bufferView": 1,
      "byteOffset": 42544,
      "componentType": 5126,
      "count": 2046,
      "max": [
        0.9932473301887512,
        0.9985111355781555
      ],
      "min": [
        0.00149305141530931,
        0.0015358924865722656
      ],
      "type": "VEC2"
    },
    {
      "bufferView": 1,
      "byteOffset": 58912,
      "componentType": 5126,
      "count": 2046,
      "max": [
        0.9932473301887512,
        0.9985111355781555
      ],
      "min": [
        0.00149305141530931,
        0.0015358924865722656
      ],
      "type": "VEC2"
    },
    {
      "bufferView": 1,
      "byteOffset": 75280,
      "componentType": 5126,
      "count": 2046,
      "max": [
        0.9932473301887512,
        0.9985111355781555
      ],
      "min": [
        0.00149305141530931,
        0.0015358924865722656
      ],
      "type": "VEC2"
    },
    {
      "bufferView": 0,
      "byteOffset": 12864,
      "componentType": 5125,
      "count": 7098,
      "type": "SCALAR"
    }
  ],
  "asset": {
    "extras": {
      "author": "mebuyukbulut (https://sketchfab.com/mebuyukbulut)",
      "license": "CC-BY-4.0 (http://creativecommons.org/licenses/by/4.0/)",
      "source": "https://sketchfab.com/3d-models/vintage-injection-syringe-6801fdf5483740f0903fb6ed396951c8",
      "title": "Vintage Injection Syringe"
    },
    "generator": "Sketchfab-16.45.0",
    "version": "2.0"
  },
  "bufferViews": [
    {
      "buffer": 0,
      "byteLength": 41256,
      "name": "floatBufferViews",
      "target": 34963
    },
    {
      "buffer": 0,
      "byteLength": 91648,
      "byteOffset": 41256,
      "byteStride": 8,
      "name": "floatBufferViews",
      "target": 34962
    },
    {
      "buffer": 0,
      "byteLength": 68736,
      "byteOffset": 132904,
      "byteStride": 12,
      "name": "floatBufferViews",
      "target": 34962
    },
    {
      "buffer": 0,
      "byteLength": 45824,
      "byteOffset": 201640,
      "byteStride": 16,
      "name": "floatBufferViews",
      "target": 34962
    }
  ],
  "buffers": [
    {
      "byteLength": 247464,
      "uri": "scene.bin"
    }
  ],
  "extensionsUsed": [
    "KHR_materials_specular"
  ],
  "images": [
    {
      "uri": "textures/DefaultMaterial_baseColor.png"
    },
    {
      "uri": "textures/DefaultMaterial_metallicRoughness.png"
    },
    {
      "uri": "textures/DefaultMaterial_normal.png"
    },
    {
      "uri": "textures/DefaultMaterial_specularf0.png"
    }
  ],
  "materials": [
    {
      "alphaMode": "BLEND",
      "doubleSided": true,
      "extensions": {
        "KHR_materials_specular": {
          "specularColorFactor": [
            1.0,
            1.0,
            1.0
          ],
          "specularFactor": 1.0,
          "specularTexture": {
            "index": 3
          }
        }
      },
      "name": "DefaultMaterial",
      "normalTexture": {
        "index": 2
      },
      "pbrMetallicRoughness": {
        "baseColorTexture": {
          "index": 0
        },
        "metallicRoughnessTexture": {
          "index": 1
        }
      }
    }
  ],
  "meshes": [
    {
      "name": "Object_0",
      "primitives": [
        {
          "attributes": {
            "NORMAL": 1,
            "POSITION": 0,
            "TANGENT": 2,
            "TEXCOORD_0": 3,
            "TEXCOORD_1": 4,
            "TEXCOORD_2": 5,
            "TEXCOORD_3": 6
          },
          "indices": 7,
          "material": 0,
          "mode": 4
        }
      ]
    },
    {
      "name": "Object_1",
      "primitives": [
        {
          "attributes": {
            "NORMAL": 9,
            "POSITION": 8,
            "TANGENT": 10,
            "TEXCOORD_0": 11,
            "TEXCOORD_1": 12,
            "TEXCOORD_2": 13,
            "TEXCOORD_3": 14
          },
          "indices": 15,
          "material": 0,
          "mode": 4
        }
      ]
    }
  ],
  "nodes": [
    {
      "children": [
        1
      ],
      "matrix": [
        1.0,
        0.0,
        0.0,
        0.0,
        0.0,
        2.220446049250313e-16,
        -1.0,
        0.0,
        0.0,
        1.0,
        2.220446049250313e-16,
        0.0,
        0.0,
        0.0,
        0.0,
        1.0
      ],
      "name": "Sketchfab_model"
    },
    {
      "children": [
        2
      ],
      "name": "root"
    },
    {
      "children": [
        3,
        5
      ],
      "matrix": [
        1.0,
        0.0,
        0.0,
        0.0,
        0.0,
        2.220446049250313e-16,
        1.0,
        0.0,
        0.0,
        -1.0,
        2.220446049250313e-16,
        0.0,
        0.0,
        0.0,
        0.0,
        1.0
      ],
      "name": "GLTF_SceneRootNode"
    },
    {
      "children": [
        4
      ],
      "matrix": [
        1.0,
        0.0,
        0.0,
        0.0,
        0.0,
        -1.685873969314855e-07,
        0.9999999999999858,
        0.0,
        0.0,
        -0.9999999999999858,
        -1.685873969314855e-07,
        0.0,
        0.1577409952878952,
        0.0,
        0.0,
        1.0
      ],
      "name": "Torus_0"
    },
    {
      "mesh": 0,
      "name": "Object_4"
    },
    {
      "children": [
        6
      ],
      "matrix": [
        1.685873969314855e-07,
        -0.9999999999999857,
        -0.0,
        0.0,
        0.9999999999999857,
        1.685873969314855e-07,
        0.0,
        0.0,
        0.0,
        -0.0,
        1.0,
        0.0,
        0.0,
        0.0,
        0.0,
        1.0
      ],
      "name": "Cylinder.001_1"
    },
    {
      "mesh": 1,
      "name": "Object_6"
    }
  ],
  "samplers": [
    {
      "magFilter": 9729,
      "minFilter": 9987,
      "wrapS": 10497,
      "wrapT": 10497
    }
  ],
  "scene": 0,
  "scenes": [
    {
      "name": "Sketchfab_Scene",
      "nodes": [
        0
      ]
    }
  ],
  "textures": [
    {
      "sampler": 0,
      "source": 0
    },
    {
      "sampler": 0,
      "source": 1
    },
    {
      "sampler": 0,
      "source": 2
    },
    {
      "sampler": 0,
      "source": 3
    }
  ]
}
